<?xml version="1.0" standalone="no"?>
<!DOCTYPE svg PUBLIC "-//W3C//DTD SVG 20010904//EN"
 "http://www.w3.org/TR/2001/REC-SVG-20010904/DTD/svg10.dtd">
<svg version="1.0" xmlns="http://www.w3.org/2000/svg"
 width="364.000000pt" height="270.000000pt" viewBox="0 0 364.000000 270.000000"
 preserveAspectRatio="xMidYMid meet">

<g transform="translate(0.000000,270.000000) scale(0.100000,-0.100000)"
fill="#000000" stroke="none">
<path d="M2390 2555 c-7 -9 -8 -15 -2 -15 5 0 12 7 16 15 3 8 4 15 2 15 -2 0
-9 -7 -16 -15z"/>
<path d="M2675 2520 c3 -5 8 -10 11 -10 2 0 4 5 4 10 0 6 -5 10 -11 10 -5 0
-7 -4 -4 -10z"/>
<path d="M2710 2506 c0 -19 22 -36 46 -36 39 0 35 16 -6 33 -30 11 -40 12 -40
3z"/>
<path d="M509 2477 c-97 -50 -215 -151 -248 -214 -13 -25 -15 -73 -3 -73 4 0
13 5 19 11 6 6 16 8 22 5 19 -12 12 -68 -14 -113 -25 -42 -47 -54 -61 -32 -3
6 -17 8 -31 4 -17 -4 -23 -2 -18 6 4 6 19 9 35 5 34 -6 45 5 64 67 14 45 13
46 -6 36 -22 -12 -34 -4 -40 26 -5 29 -51 -52 -82 -148 -28 -82 -49 -207 -40
-232 4 -8 1 -22 -6 -30 -17 -21 -7 -241 15 -350 21 -102 51 -187 70 -201 8 -6
15 -16 15 -21 0 -18 83 -123 97 -123 7 0 13 -6 13 -14 0 -17 65 -76 84 -76 8
0 16 -9 19 -19 6 -24 135 -121 161 -121 10 0 27 -11 37 -24 25 -32 130 -96
157 -96 12 0 25 -6 29 -14 4 -7 35 -27 68 -43 41 -20 61 -36 63 -50 10 -71
187 -150 417 -188 121 -20 526 -38 705 -31 80 4 247 8 372 11 158 4 258 11
330 24 113 21 192 40 186 46 -2 2 -35 5 -73 6 -39 1 -77 6 -86 12 -11 7 -26 6
-47 -1 -19 -7 -72 -9 -139 -5 l-108 6 -12 -32 c-15 -40 -35 -41 -27 -1 6 26 2
32 -30 51 -20 12 -41 29 -46 39 -14 25 2 62 37 90 l28 22 -30 -17 c-16 -9 -38
-26 -48 -37 -18 -22 -23 -73 -7 -83 40 -25 -37 -19 -302 21 -118 18 -128 27
-89 75 18 22 20 22 89 10 65 -12 75 -11 109 6 20 10 39 24 41 31 4 11 0 12
-18 2 -16 -9 -53 -10 -130 -5 l-107 7 -21 -27 c-12 -15 -22 -34 -22 -41 0 -25
-32 -94 -41 -88 -5 3 -9 20 -9 37 0 32 -1 32 -78 50 -107 26 -333 96 -357 112
-11 7 -36 16 -55 20 -19 4 -52 16 -72 26 -24 12 -58 19 -97 19 -83 0 -189 27
-229 57 -30 22 -33 30 -30 63 3 35 0 40 -42 66 -39 25 -57 30 -140 34 l-95 5
65 13 c161 32 320 24 320 -15 0 -10 -16 -34 -36 -54 -28 -29 -35 -43 -31 -61
10 -37 45 -51 139 -56 125 -6 218 21 218 65 0 20 -18 16 -25 -6 -8 -27 -36
-34 -121 -33 -82 2 -148 22 -152 46 -2 10 8 34 22 55 32 45 27 63 -22 87 -29
15 -63 18 -159 19 -115 0 -123 2 -150 25 -40 36 -40 35 -47 119 -5 50 -14 89
-27 110 -21 35 -22 35 -102 15 -25 -6 -29 -3 -52 50 -14 31 -25 62 -25 68 0 7
19 8 58 4 49 -5 63 -3 81 11 22 18 23 26 24 170 1 89 -2 148 -7 143 -5 -5 -10
-67 -11 -139 -1 -139 -9 -161 -50 -161 -13 0 -37 8 -54 17 -29 17 -31 17 -58
-3 -15 -11 -36 -23 -46 -27 -13 -5 -15 -11 -7 -24 5 -10 14 -36 20 -58 5 -22
19 -55 30 -72 22 -37 56 -43 100 -18 40 23 56 18 75 -22 14 -29 17 -54 13
-125 -3 -49 -8 -91 -11 -94 -16 -16 -27 14 -27 72 0 36 -7 81 -15 101 -14 34
-17 35 -55 30 -22 -3 -43 -1 -46 5 -3 5 -14 8 -24 5 -42 -11 -80 63 -80 153 0
47 5 64 23 86 22 26 23 29 10 68 -8 22 -18 45 -22 51 -5 5 -11 27 -15 47 -4
21 -17 50 -30 65 -20 24 -34 81 -36 146 0 5 -5 5 -10 2 -6 -4 -8 -26 -4 -56 8
-62 -11 -89 -65 -89 l-36 0 35 18 c32 15 35 22 40 69 6 63 29 93 70 93 32 0
70 -30 70 -56 0 -9 -11 -30 -25 -46 -20 -24 -23 -33 -14 -44 15 -18 50 -18
141 1 90 19 101 23 94 34 -3 5 -33 3 -68 -5 -59 -12 -138 -19 -138 -11 0 2 7
18 15 35 30 59 -6 114 -75 116 -39 1 -40 1 -40 38 0 21 9 66 21 101 17 53 24
63 42 63 33 -1 27 28 -6 32 -19 2 -27 8 -24 17 3 7 0 18 -6 24 -16 16 -2 24
33 16 34 -7 74 -55 52 -63 -14 -4 -16 -48 -3 -57 5 -3 -1 -38 -14 -80 -12 -41
-19 -78 -14 -80 9 -6 34 47 51 111 8 27 20 46 40 57 15 9 31 24 34 34 3 10 14
34 25 54 24 46 24 69 1 69 -20 0 -62 -39 -62 -58 0 -7 -4 -12 -10 -12 -5 0
-10 7 -10 15 0 9 -13 24 -30 33 -35 20 -37 28 -10 42 11 6 18 15 15 21 -4 5 2
9 12 9 26 0 43 19 43 50 1 25 1 25 13 3 11 -20 15 -20 42 -9 17 8 43 28 58 45
23 28 27 30 27 13 0 -11 -11 -34 -25 -50 -28 -33 -32 -52 -11 -52 14 0 66 68
66 87 0 17 -50 53 -74 53 -11 0 -42 -11 -67 -23z m11 -216 c0 -6 -4 -13 -10
-16 -5 -3 -10 1 -10 9 0 9 5 16 10 16 6 0 10 -4 10 -9z m-343 -743 c5 -124 8
-135 46 -158 19 -12 25 -20 16 -20 -9 0 -27 8 -40 18 -20 17 -23 31 -30 133
-4 66 -12 115 -18 117 -6 2 -11 11 -11 20 0 15 2 15 17 -1 13 -12 18 -39 20
-109z m110 -40 c-2 -24 -4 -5 -4 42 0 47 2 66 4 43 2 -24 2 -62 0 -85z m1033
-793 c0 -17 -2 -17 -10 -5 -5 8 -10 24 -10 35 0 17 2 17 10 5 5 -8 10 -24 10
-35z m-83 -31 c-3 -3 -12 -4 -19 -1 -8 3 -5 6 6 6 11 1 17 -2 13 -5z"/>
<path d="M2783 2468 c-28 -13 -29 -29 -4 -52 19 -17 71 -14 71 5 0 5 7 9 15 9
27 0 16 21 -20 36 -19 7 -36 14 -37 13 -2 0 -13 -5 -25 -11z"/>
<path d="M1906 2456 c7 -19 38 -22 32 -3 -3 6 -12 13 -21 15 -12 2 -15 -1 -11
-12z"/>
<path d="M2095 2420 c-4 -6 -1 -17 5 -25 10 -12 9 -16 -3 -21 -20 -7 -37 3
-37 22 0 19 -59 19 -66 0 -3 -8 0 -24 6 -37 11 -20 10 -21 -13 -15 -34 8 -61
-17 -47 -45 11 -20 30 -25 46 -10 5 5 45 17 89 26 147 31 185 48 185 87 0 26
-19 22 -29 -6 -13 -33 -38 -40 -47 -13 -12 37 -54 65 -54 36 0 -8 -4 -8 -14 0
-10 9 -16 9 -21 1z"/>
<path d="M756 2328 c-22 -33 -40 -88 -32 -96 4 -3 16 -1 27 6 11 7 43 17 72
23 l52 9 40 -45 c34 -38 48 -47 94 -55 33 -6 59 -6 70 -1 12 7 2 11 -39 17
-50 6 -60 12 -106 62 -50 54 -51 54 -102 51 -43 -3 -51 -1 -46 11 10 26 9 32
-3 37 -6 2 -19 -6 -27 -19z"/>
<path d="M437 2323 c-14 -13 -7 -33 11 -33 24 0 32 8 25 26 -5 15 -25 19 -36
7z"/>
<path d="M1661 2299 c-30 -10 -63 -16 -74 -13 -17 5 -17 3 -7 -16 6 -12 17
-20 23 -17 127 48 174 45 194 -13 l12 -35 0 33 c1 39 -37 82 -71 81 -13 0 -48
-9 -77 -20z"/>
<path d="M1125 2286 c-17 -7 -36 -20 -43 -29 -11 -13 -10 -15 7 -10 10 3 44
-2 73 -11 46 -13 54 -19 54 -38 -1 -18 6 -23 37 -29 50 -8 59 -18 65 -78 4
-47 2 -53 -29 -84 -93 -92 -330 -122 -504 -64 -81 27 -90 43 -47 87 27 27 35
29 75 24 53 -8 79 12 98 74 10 35 9 45 -7 78 -26 51 -49 59 -28 9 18 -44 7
-89 -30 -124 -20 -19 -31 -22 -69 -16 -42 6 -48 4 -71 -20 -30 -32 -64 -118
-73 -183 -5 -40 -4 -44 13 -39 92 28 250 37 307 18 61 -20 65 -43 17 -95 -22
-24 -40 -48 -40 -54 0 -32 105 -49 196 -32 111 21 154 78 99 130 -36 34 -30
67 21 105 60 46 162 77 275 82 l96 6 -13 45 c-8 25 -14 56 -14 70 0 24 -1 24
-66 17 -63 -6 -68 -5 -109 24 -31 22 -59 32 -106 38 l-64 8 3 36 c2 21 -2 40
-10 46 -22 19 -81 24 -113 9z"/>
<path d="M3090 2115 c-10 -12 -3 -25 38 -72 28 -32 61 -71 74 -87 21 -25 27
-27 46 -17 28 15 39 8 57 -35 15 -36 35 -46 35 -16 0 30 -44 107 -60 106 -8
-1 -23 -5 -33 -9 -16 -7 -17 -4 -11 20 6 25 5 27 -11 21 -24 -9 -65 30 -65 60
0 13 -9 28 -19 34 -26 14 -36 13 -51 -5z"/>
<path d="M2315 2026 c-39 -11 -58 -44 -23 -38 29 5 88 -136 88 -209 0 -61 -57
-97 -109 -68 -36 20 -95 166 -95 232 1 54 -2 55 -85 29 -59 -19 -80 -42 -38
-42 35 0 61 -36 92 -131 16 -46 40 -96 57 -115 26 -29 36 -34 75 -34 55 0 98
24 118 66 20 42 19 79 -4 155 -28 94 -34 126 -22 134 15 9 14 35 -1 34 -7 0
-31 -6 -53 -13z"/>
<path d="M3120 1958 c-45 -74 -15 -152 63 -165 32 -5 41 -1 72 30 19 19 35 44
35 56 0 30 -12 26 -38 -14 -26 -40 -52 -45 -83 -14 -19 19 -21 29 -15 80 7 67
-4 76 -34 27z"/>
<path d="M1092 1573 c-21 -8 -42 -60 -42 -103 0 -73 41 -120 106 -120 54 0 34
-60 -36 -107 -41 -29 -93 -29 -145 -3 -75 38 -105 20 -48 -30 79 -70 165 -80
234 -27 66 50 82 88 75 175 -11 138 -80 241 -144 215z m52 -99 c20 -8 21 -44
2 -44 -18 0 -39 27 -31 40 7 12 8 12 29 4z"/>
<path d="M3486 1445 c-9 -13 -16 -36 -16 -50 0 -14 -10 -39 -21 -54 -39 -53
-42 -150 -5 -206 20 -31 64 -51 79 -36 11 11 31 236 23 257 -3 8 -14 14 -25
14 -25 0 -35 29 -16 50 17 19 19 36 6 44 -5 3 -16 -5 -25 -19z"/>
<path d="M2597 1240 c-71 -22 -116 -80 -137 -178 -8 -36 -17 -51 -31 -55 -23
-6 -33 23 -27 83 4 45 -5 49 -53 24 -22 -11 -29 -20 -24 -32 16 -37 25 -81 35
-167 6 -49 13 -91 14 -93 7 -6 76 27 76 36 0 5 -7 27 -16 48 -15 35 -15 39 2
51 16 12 23 8 57 -31 42 -50 87 -68 139 -57 105 24 161 96 162 207 0 125 -87
197 -197 164z m101 -43 c76 -81 66 -214 -20 -267 -52 -31 -120 -21 -157 24
-36 43 -31 150 9 206 41 58 130 78 168 37z"/>
<path d="M717 1174 c-14 -14 -7 -35 11 -32 9 2 17 10 17 17 0 16 -18 25 -28
15z"/>
<path d="M3200 800 c-8 -5 -27 -10 -42 -10 -20 0 -26 -4 -22 -15 9 -21 24 -19
59 10 30 24 33 33 5 15z"/>
<path d="M3010 695 c-52 -30 -119 -63 -149 -72 -50 -16 -54 -16 -66 0 -8 11
-11 33 -8 56 3 23 1 41 -6 45 -7 5 -11 -3 -11 -23 0 -16 -4 -32 -9 -35 -17
-11 -19 -57 -3 -72 18 -19 49 -14 133 20 69 28 229 118 229 129 0 13 -14 7
-110 -48z"/>
<path d="M3162 728 c2 -7 10 -34 17 -60 8 -28 19 -48 27 -48 8 0 14 2 14 4 0
17 -45 116 -52 116 -5 0 -8 -6 -6 -12z"/>
</g>
</svg>
